<?xml version="1.0" standalone="no"?>
<!DOCTYPE svg PUBLIC "-//W3C//DTD SVG 20010904//EN"
 "http://www.w3.org/TR/2001/REC-SVG-20010904/DTD/svg10.dtd">
<svg version="1.0" xmlns="http://www.w3.org/2000/svg"
 width="512.000000pt" height="512.000000pt" viewBox="0 0 512.000000 512.000000"
 preserveAspectRatio="xMidYMid meet">

<g transform="translate(0.000000,512.000000) scale(0.100000,-0.100000)"
fill="#000000" stroke="none">
<path d="M2347 4990 c-155 -39 -294 -208 -373 -450 -22 -69 -27 -105 -28 -190
-1 -91 2 -111 21 -147 29 -54 63 -80 132 -99 210 -62 619 122 712 320 35 74
45 146 29 222 -40 195 -196 333 -394 348 -33 3 -78 1 -99 -4z m103 -170 c20
-20 24 -36 20 -75 -5 -57 -95 -81 -131 -36 -44 54 -11 131 56 131 22 0 43 -8
55 -20z m-237 -202 c32 -16 46 -39 47 -71 0 -38 -40 -77 -80 -77 -60 0 -103
78 -67 122 28 35 65 45 100 26z m225 -4 c66 -46 36 -143 -44 -144 -70 0 -103
95 -48 139 32 25 62 27 92 5z m223 -13 c36 -36 37 -73 4 -106 -60 -61 -158 4
-126 84 23 55 79 65 122 22z m-432 -208 c54 -46 22 -136 -49 -136 -39 0 -80
40 -80 79 0 59 83 95 129 57z m215 -4 c42 -33 35 -99 -14 -124 -22 -11 -35
-12 -59 -4 -36 13 -51 35 -51 78 0 34 39 71 75 71 12 0 34 -9 49 -21z"/>
<path d="M2864 3999 c-61 -18 -118 -112 -100 -166 4 -14 3 -14 -7 2 -26 41
-65 74 -105 86 -84 25 -169 -35 -179 -125 -7 -57 20 -112 66 -140 l36 -21 -46
-5 c-55 -7 -93 -30 -119 -73 -38 -62 -16 -151 47 -193 l32 -21 -44 -6 c-115
-12 -173 -142 -106 -236 28 -39 98 -66 148 -56 52 9 108 68 117 121 l7 40 38
-37 c47 -47 95 -58 156 -34 54 20 86 62 93 121 l5 43 21 -32 c78 -117 268 -64
268 75 0 55 -21 98 -61 130 l-30 23 35 3 c83 6 134 62 134 147 0 59 -25 107
-69 130 -40 20 -120 20 -151 -2 -23 -16 -23 -16 -16 3 24 58 28 78 22 109 -9
47 -59 102 -104 115 -42 11 -46 11 -88 -1z"/>
<path d="M1666 3933 c29 -83 32 -212 8 -294 -68 -231 -289 -386 -523 -366 -37
3 -94 15 -126 26 -32 11 -60 19 -62 17 -2 -1 16 -29 39 -60 143 -194 405 -256
625 -150 292 140 375 526 168 775 -36 42 -129 119 -144 119 -4 0 3 -30 15 -67z"/>
<path d="M1252 3867 c-27 -29 -28 -76 -2 -109 19 -25 19 -26 0 -43 -13 -12
-20 -31 -20 -56 0 -67 75 -102 130 -60 24 19 25 19 48 0 76 -59 173 38 113
112 -18 22 -18 24 0 53 26 42 24 72 -6 101 -30 31 -84 34 -110 5 -17 -19 -18
-19 -43 0 -34 27 -83 26 -110 -3z"/>
<path d="M1935 2891 c-81 -29 -224 -105 -305 -162 -105 -74 -244 -217 -319
-329 -63 -94 -171 -300 -171 -326 0 -17 5 -18 -60 7 -324 123 -707 1 -899
-286 -178 -267 -180 -621 -5 -995 74 -157 163 -281 303 -420 141 -140 232
-200 376 -246 78 -25 88 -26 350 -26 290 0 335 6 452 57 240 107 505 405 629
708 56 138 85 265 91 404 13 267 -59 466 -227 633 -200 199 -515 269 -791 177
l-68 -23 15 35 c8 20 31 65 51 101 127 232 284 388 499 496 110 56 111 56 137
39 48 -31 107 1 107 59 0 24 -9 41 -37 68 -49 46 -67 50 -128 29z"/>
<path d="M4001 2149 c-1 -231 1 -259 17 -277 26 -32 63 -37 95 -12 27 21 27
23 27 143 l0 122 -36 50 c-41 57 -72 119 -90 185 -11 39 -12 12 -13 -211z"/>
</g>
</svg>
